<svg id="Group_7" data-name="Group 7" xmlns="http://www.w3.org/2000/svg" width="100.462" height="101.826" viewBox="0 0 100.462 101.826">
  <path id="Path_212" data-name="Path 212" d="M122.539,168l20.276,19.52h34.9L159.233,168Z" transform="translate(-122.539 -149.779)" fill="#fff"/>
  <path id="Path_213" data-name="Path 213" d="M142.921,317.389l-20.229,19.475h36.69l18.437-19.475Z" transform="translate(-122.645 -253.858)" fill="#fff"/>
  <path id="Path_214" data-name="Path 214" d="M134.405,244.393v7.579h-6.3v-7.579h-4.291v18.489h4.291v-7.009h6.3v7.009h4.319V244.393Z" transform="translate(-123.431 -203.002)" fill="#fff"/>
  <path id="Path_215" data-name="Path 215" d="M243.3,244.393h-4.319v18.489H250v-3.9h-6.7Z" transform="translate(-203.666 -203.002)" fill="#fff"/>
  <rect id="Rectangle_33" data-name="Rectangle 33" width="4.37" height="18.489" transform="translate(48.34 41.392)" fill="#fff"/>
  <path id="Path_216" data-name="Path 216" d="M308.764,248.293H316.9v-3.9H304.446v18.49h4.318v-7.01h6.741v-3.9h-6.741Z" transform="translate(-249.273 -203.001)" fill="#fff"/>
  <path id="Path_217" data-name="Path 217" d="M183.825,244.394l-6.251,18.489h4.438l1.058-3.36h6.235l1.057,3.36H194.8l-6.245-18.489Zm.393,11.479,1.969-6.252,1.968,6.252Z" transform="translate(-160.882 -203.003)" fill="#fff"/>
  <path id="Path_218" data-name="Path 218" d="M374.452,244.394h-4.9l-3.48,5.586-3.481-5.586h-4.9l6.03,9.245-5.58,8.553-6.011-17.8H347.4l-6.251,18.489h4.438l1.058-3.36h6.236l1.057,3.36h8.653l3.481-5.586,3.48,5.586h4.9l-6.03-9.244ZM347.8,255.873l1.968-6.252,1.968,6.252Z" transform="translate(-274.846 -203.003)" fill="#fff"/>
  <path id="Path_219" data-name="Path 219" d="M306.491,168l-11.446,11.882,7.23,7.638H322.91L343.185,168Z" transform="translate(-242.723 -149.779)" fill="#fff"/>
  <path id="Path_220" data-name="Path 220" d="M302.277,317.389l-7.23,7.638,11.4,11.837h36.692L322.91,317.389Z" transform="translate(-242.724 -253.858)" fill="#fff"/>
  <path id="Path_239" data-name="Path 239" d="M134.405,244.393v7.579h-6.3v-7.579h-4.291v18.489h4.291v-7.009h6.3v7.009h4.319V244.393Z" transform="translate(-91.09 -244.393)" fill="#fff" opacity="0"/>
  <path id="Path_242" data-name="Path 242" d="M134.405,244.393v7.579h-6.3v-7.579h-4.291v18.489h4.291v-7.009h6.3v7.009h4.319V244.393Z" transform="translate(-123.43 -161.056)" fill="#fff" opacity="0"/>
</svg>
