<svg id="Group_7" data-name="Group 7" xmlns="http://www.w3.org/2000/svg" width="72.475" height="73.221" viewBox="0 0 72.475 73.221">
  <path id="Path_212" data-name="Path 212" d="M122.539,168l14.627,14.082h25.176L149.011,168Z" transform="translate(-122.539 -154.855)" fill="#fff"/>
  <path id="Path_213" data-name="Path 213" d="M137.285,317.389l-14.594,14.05h26.469l13.3-14.05Z" transform="translate(-122.658 -271.557)" fill="#fff"/>
  <path id="Path_214" data-name="Path 214" d="M131.456,244.393v5.468h-4.541v-5.468h-3.1v13.339h3.1v-5.057h4.541v5.057h3.116V244.393Z" transform="translate(-123.539 -214.533)" fill="#fff"/>
  <path id="Path_215" data-name="Path 215" d="M242.1,244.393h-3.116v13.339h7.948v-2.813H242.1Z" transform="translate(-213.505 -214.533)" fill="#fff"/>
  <rect id="Rectangle_33" data-name="Rectangle 33" width="3.153" height="13.339" transform="translate(34.873 29.861)" fill="#fff"/>
  <path id="Path_216" data-name="Path 216" d="M307.561,247.206h5.869v-2.814h-8.984v13.339h3.115v-5.057h4.863V249.86h-4.863Z" transform="translate(-264.643 -214.532)" fill="#fff"/>
  <path id="Path_217" data-name="Path 217" d="M182.084,244.394l-4.51,13.339h3.2l.763-2.424h4.5l.763,2.424H190L185.5,244.394Zm.284,8.281,1.42-4.51,1.42,4.51Z" transform="translate(-165.532 -214.533)" fill="#fff"/>
  <path id="Path_218" data-name="Path 218" d="M365.176,244.394h-3.534l-2.51,4.03-2.511-4.03h-3.534l4.35,6.669-4.025,6.17-4.336-12.84h-3.413l-4.51,13.339h3.2l.763-2.424h4.5l.763,2.424h6.242l2.511-4.03,2.51,4.03h3.534l-4.35-6.669Zm-19.23,8.281,1.42-4.51,1.42,4.51Z" transform="translate(-293.317 -214.533)" fill="#fff"/>
  <path id="Path_219" data-name="Path 219" d="M303.3,168l-8.257,8.572,5.216,5.51h14.886L329.775,168Z" transform="translate(-257.299 -154.855)" fill="#fff"/>
  <path id="Path_220" data-name="Path 220" d="M300.262,317.389l-5.216,5.51,8.226,8.54h26.47l-14.6-14.05Z" transform="translate(-257.3 -271.557)" fill="#fff"/>
  <path id="Path_239" data-name="Path 239" d="M131.456,244.393v5.468h-4.541v-5.468h-3.1v13.339h3.1v-5.057h4.541v5.057h3.116V244.393Z" transform="translate(-100.207 -244.393)" fill="#fff" opacity="0"/>
  <path id="Path_243" data-name="Path 243" d="M131.456,244.393v5.468h-4.541v-5.468h-3.1v13.339h3.1v-5.057h4.541v5.057h3.116V244.393Z" transform="translate(-114.67 -184.51)" fill="#fff" opacity="0"/>
</svg>
