<svg id="Group_7" data-name="Group 7" xmlns="http://www.w3.org/2000/svg" width="41.712" height="42.141" viewBox="0 0 41.712 42.141">
  <path id="Path_212" data-name="Path 212" d="M122.539,168l8.418,8.1h14.489l-7.672-8.1Z" transform="translate(-122.539 -160.435)" fill="#fff"/>
  <path id="Path_213" data-name="Path 213" d="M131.091,317.389l-8.4,8.086h15.234l7.655-8.086Z" transform="translate(-122.672 -291.011)" fill="#fff"/>
  <path id="Path_214" data-name="Path 214" d="M128.214,244.393v3.147H125.6v-3.147h-1.782v7.677H125.6v-2.91h2.614v2.91h1.793v-7.677Z" transform="translate(-123.658 -227.208)" fill="#fff"/>
  <path id="Path_215" data-name="Path 215" d="M240.778,244.393h-1.793v7.677h4.575v-1.619h-2.781Z" transform="translate(-224.321 -227.208)" fill="#fff"/>
  <rect id="Rectangle_33" data-name="Rectangle 33" width="1.815" height="7.677" transform="translate(20.071 17.186)" fill="#fff"/>
  <path id="Path_216" data-name="Path 216" d="M306.239,246.011h3.378v-1.619h-5.171v7.677h1.793v-2.911h2.8v-1.62h-2.8Z" transform="translate(-281.538 -227.207)" fill="#fff"/>
  <path id="Path_217" data-name="Path 217" d="M180.17,244.394l-2.6,7.677h1.843l.439-1.395h2.589l.439,1.395h1.843l-2.593-7.677Zm.163,4.766.817-2.6.817,2.6Z" transform="translate(-170.643 -227.208)" fill="#fff"/>
  <path id="Path_218" data-name="Path 218" d="M354.978,244.394h-2.034l-1.445,2.319-1.445-2.319H348.02l2.5,3.838-2.317,3.551-2.5-7.39h-1.964l-2.6,7.677h1.842l.439-1.395h2.589l.439,1.395h3.593l1.445-2.319,1.445,2.319h2.034l-2.5-3.838Zm-11.067,4.766.817-2.6.817,2.6Z" transform="translate(-313.622 -227.208)" fill="#fff"/>
  <path id="Path_219" data-name="Path 219" d="M299.8,168l-4.752,4.933,3,3.171h8.567l8.418-8.1Z" transform="translate(-273.321 -160.435)" fill="#fff"/>
  <path id="Path_220" data-name="Path 220" d="M298.048,317.389l-3,3.171,4.734,4.915h15.234l-8.4-8.086Z" transform="translate(-273.322 -291.011)" fill="#fff"/>
  <path id="Path_239" data-name="Path 239" d="M128.214,244.393v3.147H125.6v-3.147h-1.782v7.677H125.6v-2.91h2.614v2.91h1.793v-7.677Z" transform="translate(-110.23 -244.393)" fill="#fff" opacity="0"/>
  <path id="Path_243" data-name="Path 243" d="M128.214,244.393v3.147H125.6v-3.147h-1.782v7.677H125.6v-2.91h2.614v2.91h1.793v-7.677Z" transform="translate(-118.554 -209.929)" fill="#fff" opacity="0"/>
</svg>
