<svg xmlns="http://www.w3.org/2000/svg" width="96.14" height="97.304" viewBox="0 0 96.14 97.304">
  <g id="Group_7" data-name="Group 7" transform="translate(0 17.437)">
    <path id="Path_212" data-name="Path 212" d="M122.539,168l19.4,18.68h33.4L157.655,168Z" transform="translate(-122.539 -168)" fill="#fff"/>
    <path id="Path_213" data-name="Path 213" d="M142.05,317.389l-19.359,18.637H157.8l17.643-18.637Z" transform="translate(-122.647 -274.028)" fill="#fff"/>
    <path id="Path_214" data-name="Path 214" d="M133.95,244.393v7.253h-6.024v-7.253h-4.107v17.694h4.107v-6.708h6.024v6.708h4.133V244.393Z" transform="translate(-123.447 -222.219)" fill="#fff"/>
    <path id="Path_215" data-name="Path 215" d="M243.118,244.393h-4.133v17.694h10.544v-3.732h-6.411Z" transform="translate(-205.186 -222.22)" fill="#fff"/>
    <rect id="Rectangle_33" data-name="Rectangle 33" width="4.182" height="17.694" transform="translate(46.26 22.174)" fill="#fff"/>
    <path id="Path_216" data-name="Path 216" d="M308.578,248.125h7.786v-3.733H304.446v17.695h4.132v-6.709h6.451v-3.733h-6.451Z" transform="translate(-251.646 -222.219)" fill="#fff"/>
    <path id="Path_217" data-name="Path 217" d="M183.557,244.394l-5.983,17.694h4.247l1.012-3.215H188.8l1.012,3.215h4.248l-5.977-17.694Zm.376,10.985,1.884-5.983,1.883,5.983Z" transform="translate(-161.6 -222.22)" fill="#fff"/>
    <path id="Path_218" data-name="Path 218" d="M373.02,244.394h-4.688L365,249.74l-3.331-5.346h-4.688l5.771,8.847-5.34,8.185-5.752-17.032h-4.527l-5.982,17.694H345.4l1.012-3.215h5.967l1.012,3.215h8.28L365,256.742l3.33,5.346h4.688l-5.77-8.847Zm-25.509,10.985,1.884-5.983,1.883,5.983Z" transform="translate(-277.698 -222.22)" fill="#fff"/>
    <path id="Path_219" data-name="Path 219" d="M306,168l-10.953,11.371,6.919,7.309h19.746l19.4-18.68Z" transform="translate(-244.974 -168)" fill="#fff"/>
    <path id="Path_220" data-name="Path 220" d="M301.966,317.389l-6.919,7.309,10.912,11.328h35.113l-19.361-18.637Z" transform="translate(-244.975 -274.028)" fill="#fff"/>
    <path id="Path_239" data-name="Path 239" d="M133.95,244.393v7.253h-6.024v-7.253h-4.107v17.694h4.107v-6.708h6.024v6.708h4.133V244.393Z" transform="translate(-92.498 -261.83)" fill="#fff" opacity="0"/>
    <path id="Path_241" data-name="Path 241" d="M133.95,244.393v7.253h-6.024v-7.253h-4.107v17.694h4.107v-6.708h6.024v6.708h4.133V244.393Z" transform="translate(-123.447 -182.219)" fill="#fff" opacity="0"/>
  </g>
</svg>
